<svg xmlns="http://www.w3.org/2000/svg" xmlns:xlink="http://www.w3.org/1999/xlink" version="1.1" width="1000" height="1000" viewBox="0 0 1000 1000" xml:space="preserve">
<desc>Created with Fabric.js 3.5.0</desc>
<defs>
</defs>
<rect x="0" y="0" width="100%" height="100%" fill="rgba(255,255,255,0)"/>
<g transform="matrix(1.8519 0 0 1.8519 500.026 500.026)" id="595814">
<g style="" vector-effect="non-scaling-stroke">
		<g transform="matrix(1 0 0 1 0 0)" id="8800">
<rect style="stroke: none; stroke-width: 1; stroke-dasharray: none; stroke-linecap: butt; stroke-dashoffset: 0; stroke-linejoin: miter; stroke-miterlimit: 4; is-custom-font: none; font-file-url: none; fill: rgb(255,255,255); fill-rule: nonzero; opacity: 1; visibility: hidden;" vector-effect="non-scaling-stroke" x="-540" y="-540" rx="0" ry="0" width="1080" height="1080"/>
</g>
		<g transform="matrix(1 0 0 1 -0.0015 0.0006)">
<path style="stroke: none; stroke-width: 1; stroke-dasharray: none; stroke-linecap: butt; stroke-dashoffset: 0; stroke-linejoin: miter; stroke-miterlimit: 4; is-custom-font: none; font-file-url: none; fill: rgb(65,69,90); fill-rule: nonzero; opacity: 1;" vector-effect="non-scaling-stroke" transform=" translate(54.9415, -87.8506)" d="M 0 0 C 6.98195211 6.62270178 10.79302433 14.39701627 11.23828125 24.00390625 C 11.46546524 33.38012856 10.9722839 41.3236957 7 50 C 6.649375 50.7734375 6.29875 51.546875 5.9375 52.34375 C 2.59662969 58.93268866 -2.21297573 64.42035297 -7 70 C -6.11957031 70.26683594 -5.23914063 70.53367187 -4.33203125 70.80859375 C 8.65374092 75.45180654 19.03310117 85.72265363 25 98 C 27.74578725 103.89881301 28.44311932 108.96400661 28.3125 115.4375 C 28.31572266 116.23220703 28.31894531 117.02691406 28.32226562 117.84570312 C 28.18307738 133.3968256 21.76209459 147.0945673 12 159 C 11.32195312 159.84175781 10.64390625 160.68351563 9.9453125 161.55078125 C -3.50138379 177.38635949 -24.09628142 190.48626642 -45.14746094 192.26611328 C -64.99645749 193.28729267 -82.50152169 191.83211223 -98.53125 178.96875 C -105.78420402 172.2960323 -111.4803311 163.19541556 -112.203125 153.1875 C -112.34599833 143.47211324 -110.73697265 134.96873435 -107 126 C -106.67 126 -106.34 126 -106 126 C -105.92523438 126.969375 -105.85046875 127.93875 -105.7734375 128.9375 C -104.3934292 143.93258333 -100.58780304 158.79126452 -88.71875 168.953125 C -76.36621329 178.25661784 -63.0022516 179.92153857 -48 179 C -43.82062053 178.39546561 -39.98648611 177.37907853 -36 176 C -35.01773438 175.67128906 -34.03546875 175.34257812 -33.0234375 175.00390625 C -16.71040461 168.91286425 -4.70181994 156.99469161 2.55859375 141.37890625 C 7.0923266 130.75105012 9.11549327 120.48723281 5.375 109.1875 C 1.03423099 98.81788514 -5.1227794 93.43332806 -15.375 88.96484375 C -35.86500322 81.71920116 -60.25915449 92.17351054 -78.83740234 100.9453125 C -93.55111042 108.12111052 -105.98466252 117.0322442 -117.9765625 128.1875 C -120 130 -120 130 -123 132 C -123.476152 124.69900274 -122.13181408 118.10229707 -117.94921875 112.015625 C -114.59739653 108.21132795 -110.45220085 106.12307808 -106 103.8125 C -105.07082764 103.31766113 -104.14165527 102.82282227 -103.18432617 102.31298828 C -99.79984664 100.52185226 -96.4021485 98.75723851 -93 97 C -91.9529892 96.45874481 -91.9529892 96.45874481 -90.88482666 95.90655518 C -82.15768638 91.39764019 -73.41738399 86.91456839 -64.671875 82.44140625 C -56.04655647 78.02914963 -47.42727894 73.60782145 -38.89648438 69.01464844 C -37.60770007 68.32512893 -36.31452979 67.64375809 -35.01757812 66.96972656 C -23.02329466 60.73483888 -15.12888406 53.74516683 -10 41 C -7.40557677 31.93938588 -7.55188245 19.6179416 -11.7421875 11.10546875 C -17.10555502 2.12765791 -22.44166552 -2.92868326 -32.6875 -5.75 C -39.07441989 -7.19378649 -45.47036483 -7.69458158 -52 -8 C -51.02160156 -7.70867187 -50.04320312 -7.41734375 -49.03515625 -7.1171875 C -37.07190231 -3.43336668 -28.13534768 0.43336093 -22 12 C -17.93108665 19.95542713 -18.93536402 31.35172328 -20.875 39.8203125 C -25.51311765 52.7277057 -33.63941881 61.04228193 -45.92749023 66.94873047 C -50.45852112 69.04581506 -55.03996686 71.0245889 -59.625 73 C -61.17882492 73.67868215 -62.73221314 74.35836502 -64.28515625 75.0390625 C -67.34486471 76.37840415 -70.40778017 77.70994274 -73.47363281 79.03515625 C -76.53730149 80.36086334 -79.59307206 81.70282369 -82.64355469 83.05859375 C -83.38100922 83.38529053 -84.11846375 83.7119873 -84.87826538 84.04858398 C -86.27687588 84.66888872 -87.6742604 85.29196737 -89.07022095 85.91821289 C -93.776621 88 -93.776621 88 -96 88 C -96.12781934 81.38400134 -96.21477405 74.76832636 -96.2746582 68.15136719 C -96.29964839 65.9051524 -96.33365235 63.65901764 -96.37719727 61.41308594 C -96.67285309 45.7607187 -96.51532793 33.60894816 -86.09375 21.0390625 C -79.49247802 14.61021181 -71.25904054 9.70286199 -61.9375 9.75 C -60.91527344 9.74484375 -59.89304687 9.7396875 -58.83984375 9.734375 C -56.0390422 9.99634818 -54.38409096 10.55925438 -52 12 C -52.7425 12.556875 -53.485 13.11375 -54.25 13.6875 C -58.47287655 17.23855528 -61.34779625 20.71357621 -63 26 C -63.16585708 28.89572199 -63.23341501 31.68990202 -63.1953125 34.58203125 C -63.19106766 35.80329964 -63.19106766 35.80329964 -63.18673706 37.04924011 C -63.17558584 39.637146 -63.15049083 42.22469958 -63.125 44.8125 C -63.11496365 46.57226061 -63.10583894 48.33202667 -63.09765625 50.09179688 C -63.0756631 54.39466598 -63.04116836 58.69727336 -63 63 C -59.79715981 61.70163704 -56.61666181 60.35519826 -53.4375 59 C -52.54224609 58.63777344 -51.64699219 58.27554688 -50.72460938 57.90234375 C -43.07734539 54.59693294 -37.79186312 49.97154454 -34.0625 42.4375 C -31.5769883 34.51200044 -31.59228749 25.00783158 -35.0625 17.4375 C -38.65190115 11.36778233 -43.62892719 6.60665854 -50.50390625 4.48828125 C -69.47954097 0.77630263 -93.14362141 8.34358086 -109 19 C -115.62372272 24.81844137 -119.11823328 31.18233276 -120 40 C -119.33613281 39.94199219 -118.67226562 39.88398438 -117.98828125 39.82421875 C -110.71045328 39.45235893 -110.71045328 39.45235893 -107 42.3125 C -103.54781305 46.95137621 -102.40460205 49.1452535 -103 55 C -104.75349334 58.50698668 -106.40840013 60.5415101 -109.5 62.9375 C -115.46101983 64.7470953 -121.63980735 64.41367328 -127.4140625 61.984375 C -132.39434166 59.03724351 -136.13277772 55.60166683 -138 50 C -139.03063574 35.26697768 -136.41648382 24.74391407 -127 13 C -124.5 10.25 -124.5 10.25 -122 8 C -121.54753906 7.55527344 -121.09507812 7.11054687 -120.62890625 6.65234375 C -91.27942867 -20.79417519 -31.65481028 -25.67626758 0 0 Z" stroke-linecap="round"/>
</g>
		<g transform="matrix(1 0 0 1 5.4386 43.5164)">
<path style="stroke: none; stroke-width: 1; stroke-dasharray: none; stroke-linecap: butt; stroke-dashoffset: 0; stroke-linejoin: miter; stroke-miterlimit: 4; is-custom-font: none; font-file-url: none; fill: rgb(68,72,92); fill-rule: nonzero; opacity: 1;" vector-effect="non-scaling-stroke" transform=" translate(35.0614, -37.3064)" d="M 0 0 C 5.17047783 3.97642413 9.48111625 8.63955231 11.4375 14.9375 C 12.81226175 31.23824641 9.49072671 45.64087442 -0.75 58.734375 C -11.82738591 70.75916892 -27.86759361 76.2855301 -43.92578125 77.23828125 C -52.91674747 77.58680482 -59.96246585 77.30590194 -67.5625 71.9375 C -68.47 71.36 -69.3775 70.7825 -70.3125 70.1875 C -77.30981308 63.19018692 -81.67613499 54.846906 -81.85546875 44.90625 C -81.83574516 42.74980362 -81.80028831 40.59345016 -81.75 38.4375 C -81.73646484 37.32890625 -81.72292969 36.2203125 -81.70898438 35.078125 C -81.67388881 32.36406768 -81.6247227 29.65104807 -81.5625 26.9375 C -80.593125 26.4528125 -79.62375 25.968125 -78.625 25.46875 C -77.98449707 25.14841797 -77.34399414 24.82808594 -76.68408203 24.49804688 C -75.25823501 23.78528744 -73.83212391 23.07305606 -72.40576172 22.36132812 C -68.60013081 20.4614343 -64.7994106 18.55276453 -61.0078125 16.625 C -60.28335937 16.25826172 -59.55890625 15.89152344 -58.8125 15.51367188 C -57.41243712 14.80463268 -56.01395303 14.09246603 -54.6171875 13.37695312 C -49.78736481 10.9375 -49.78736481 10.9375 -47.5625 10.9375 C -47.5625 28.4275 -47.5625 45.9175 -47.5625 63.9375 C -32.8570093 62.95713395 -22.04290118 61.25635357 -11.5625 50.9375 C -4.08249771 42.36949738 1.58217143 31.09986499 0.90625 19.5078125 C -0.10745779 13.94931478 -2.12208523 9.73269719 -6.734375 6.33984375 C -12.7019028 3.0805093 -18.8636122 1.79078038 -25.5625 0.9375 C -25.5625 0.2775 -25.5625 -0.3825 -25.5625 -1.0625 C -17.55040728 -2.56630817 -7.34041859 -4.33042103 0 0 Z" stroke-linecap="round"/>
</g>
		<g transform="matrix(1 0 0 1 -27.4803 -32.35)">
<path style="stroke: none; stroke-width: 1; stroke-dasharray: none; stroke-linecap: butt; stroke-dashoffset: 0; stroke-linejoin: miter; stroke-miterlimit: 4; is-custom-font: none; font-file-url: none; fill: rgb(255,255,255); fill-rule: nonzero; opacity: 1;" vector-effect="non-scaling-stroke" transform=" translate(3.4203, -18.5)" d="M 0 0 C 0.09886835 4.78712933 0.17146623 9.57366475 0.21972656 14.36157227 C 0.23984381 15.99025829 0.26714137 17.61887208 0.30175781 19.24731445 C 0.35027429 21.58823458 0.37296632 23.92820018 0.390625 26.26953125 C 0.41127014 26.99775589 0.43191528 27.72598053 0.45318604 28.47627258 C 0.45464325 31.75838118 0.44232802 33.5224574 -1.83691406 35.9831543 C -4 37 -4 37 -7 37 C -7.08777806 32.83346814 -7.14065272 28.66717724 -7.1875 24.5 C -7.21263672 23.32695312 -7.23777344 22.15390625 -7.26367188 20.9453125 C -7.38330281 6.7491087 -7.38330281 6.7491087 -2.45776367 1.29101562 C -1 0 -1 0 0 0 Z" stroke-linecap="round"/>
</g>
		<g transform="matrix(1 0 0 1 -27.2787 48.15)">
<path style="stroke: none; stroke-width: 1; stroke-dasharray: none; stroke-linecap: butt; stroke-dashoffset: 0; stroke-linejoin: miter; stroke-miterlimit: 4; is-custom-font: none; font-file-url: none; fill: rgb(255,255,255); fill-rule: nonzero; opacity: 1;" vector-effect="non-scaling-stroke" transform=" translate(4.2188, -17)" d="M 0 0 C 0 11.22 0 22.44 0 34 C -5.77084686 28.22915314 -8.13313482 25.19067727 -8.4375 17.125 C -8.27963213 10.77081837 -6.74469358 5.98987712 -2.42578125 1.28515625 C -1 0 -1 0 0 0 Z" stroke-linecap="round"/>
</g>
</g>
</g>
</svg>